<svg width="19" height="18" viewBox="0 0 19 18" fill="none" xmlns="http://www.w3.org/2000/svg">
<path d="M9.5 10.4316C11.2423 10.4316 12.6543 9.1832 12.6543 7.64258V3.92383C12.6543 2.3832 11.2423 1.13477 9.5 1.13477C7.75771 1.13477 6.3457 2.3832 6.3457 3.92383V7.64258C6.3457 9.1832 7.75771 10.4316 9.5 10.4316ZM15.623 7.60938C15.623 7.53633 15.5563 7.47656 15.4746 7.47656H14.3613C14.2797 7.47656 14.2129 7.53633 14.2129 7.60938C14.2129 9.93857 12.1032 11.8262 9.5 11.8262C6.89678 11.8262 4.78711 9.93857 4.78711 7.60938C4.78711 7.53633 4.72031 7.47656 4.63867 7.47656H3.52539C3.44375 7.47656 3.37695 7.53633 3.37695 7.60938C3.37695 10.4101 5.72598 12.721 8.75781 13.048V14.748H6.06182C5.80762 14.748 5.60352 14.9854 5.60352 15.2793V15.877C5.60352 15.95 5.65547 16.0098 5.71855 16.0098H13.2814C13.3445 16.0098 13.3965 15.95 13.3965 15.877V15.2793C13.3965 14.9854 13.1924 14.748 12.9382 14.748H10.168V13.0563C13.2351 12.7575 15.623 10.4333 15.623 7.60938Z" fill="white"/>
</svg>
