<svg width="26" height="26" viewBox="0 0 26 26" fill="none" xmlns="http://www.w3.org/2000/svg">
<path d="M13 0C12.6878 0 12.4348 0.253056 12.4348 0.565217C12.4348 0.877378 12.6878 1.13043 13 1.13043C13.3122 1.13043 13.5652 0.877378 13.5652 0.565217C13.5652 0.253056 13.3122 0 13 0ZM10.5691 0.226308C10.257 0.226308 10.0039 0.479364 10.0039 0.791525C10.0039 1.10369 10.257 1.35674 10.5691 1.35674C10.8813 1.35674 11.1343 1.10369 11.1343 0.791525C11.1343 0.479364 10.8813 0.226308 10.5691 0.226308ZM15.4309 0.226308C15.1187 0.226308 14.8657 0.479364 14.8657 0.791525C14.8657 1.10369 15.1187 1.35674 15.4309 1.35674C15.743 1.35674 15.9961 1.10369 15.9961 0.791525C15.9961 0.479364 15.743 0.226308 15.4309 0.226308ZM8.25195 0.960428C7.93979 0.960428 7.68673 1.21348 7.68673 1.52565C7.68673 1.83781 7.93979 2.09086 8.25195 2.09086C8.56411 2.09086 8.81717 1.83781 8.81717 1.52565C8.81717 1.21348 8.56411 0.960428 8.25195 0.960428ZM17.748 0.960428C17.4359 0.960428 17.1828 1.21348 17.1828 1.52565C17.1828 1.83781 17.4359 2.09086 17.748 2.09086C18.0602 2.09086 18.3133 1.83781 18.3133 1.52565C18.3133 1.21348 18.0602 0.960428 17.748 0.960428ZM6.10479 2.09086C5.79263 2.09086 5.53957 2.34392 5.53957 2.65608C5.53957 2.96824 5.79263 3.2213 6.10479 3.2213C6.41695 3.2213 6.67001 2.96824 6.67001 2.65608C6.67001 2.34392 6.41695 2.09086 6.10479 2.09086ZM19.8952 2.09086C19.583 2.09086 19.33 2.34392 19.33 2.65608C19.33 2.96824 19.583 3.2213 19.8952 3.2213C20.2074 3.2213 20.4604 2.96824 20.4604 2.65608C20.4604 2.34392 20.2074 2.09086 19.8952 2.09086ZM13 3.3913C7.70331 3.3913 3.3913 7.70331 3.3913 13C3.3913 18.2967 7.70331 22.6087 13 22.6087C18.2967 22.6087 22.6087 18.2967 22.6087 13C22.6087 7.70331 18.2967 3.3913 13 3.3913ZM4.18283 3.61761C3.87067 3.61761 3.61761 3.87067 3.61761 4.18283C3.61761 4.33273 3.67716 4.4765 3.78316 4.5825C3.88916 4.6885 4.03292 4.74805 4.18283 4.74805C4.33273 4.74805 4.4765 4.6885 4.5825 4.5825C4.6885 4.4765 4.74805 4.33273 4.74805 4.18283C4.74805 4.03292 4.6885 3.88916 4.5825 3.78316C4.4765 3.67716 4.33273 3.61761 4.18283 3.61761ZM21.8172 3.61761C21.505 3.61761 21.252 3.87067 21.252 4.18283C21.252 4.33273 21.3115 4.4765 21.4175 4.5825C21.5235 4.6885 21.6673 4.74805 21.8172 4.74805C21.9671 4.74805 22.1108 4.6885 22.2168 4.5825C22.3228 4.4765 22.3824 4.33273 22.3824 4.18283C22.3824 3.87067 22.1293 3.61761 21.8172 3.61761ZM13 5.08696C17.3803 5.08696 20.913 8.6197 20.913 13C20.913 17.3803 17.3803 20.913 13 20.913C8.6197 20.913 5.08696 17.3803 5.08696 13C5.08696 8.6197 8.6197 5.08696 13 5.08696ZM2.65608 5.53957C2.34392 5.53957 2.09086 5.79263 2.09086 6.10479C2.09086 6.41695 2.34392 6.67001 2.65608 6.67001C2.96824 6.67001 3.2213 6.41695 3.2213 6.10479C3.2213 5.79263 2.96824 5.53957 2.65608 5.53957ZM23.3439 5.53957C23.0318 5.53957 22.7787 5.79263 22.7787 6.10479C22.7787 6.41695 23.0318 6.67001 23.3439 6.67001C23.6561 6.67001 23.9091 6.41695 23.9091 6.10479C23.9091 5.79263 23.6561 5.53957 23.3439 5.53957ZM13 7.34783C9.89847 7.34783 7.34783 9.89847 7.34783 13C7.34783 16.1015 9.89847 18.6522 13 18.6522C16.1015 18.6522 18.6522 16.1015 18.6522 13C18.6522 9.89847 16.1015 7.34783 13 7.34783ZM1.52565 7.68673C1.21348 7.68673 0.960428 7.93979 0.960428 8.25195C0.960428 8.56411 1.21348 8.81717 1.52565 8.81717C1.83781 8.81717 2.09086 8.56411 2.09086 8.25195C2.09086 7.93979 1.83781 7.68673 1.52565 7.68673ZM24.4744 7.68673C24.1622 7.68673 23.9091 7.93979 23.9091 8.25195C23.9091 8.56411 24.1622 8.81717 24.4744 8.81717C24.7865 8.81717 25.0396 8.56411 25.0396 8.25195C25.0396 7.93979 24.7865 7.68673 24.4744 7.68673ZM0.791525 10.0039C0.479364 10.0039 0.226308 10.257 0.226308 10.5691C0.226308 10.8813 0.479364 11.1343 0.791525 11.1343C1.10369 11.1343 1.35674 10.8813 1.35674 10.5691C1.35674 10.257 1.10369 10.0039 0.791525 10.0039ZM25.2085 10.0039C24.8963 10.0039 24.6433 10.257 24.6433 10.5691C24.6433 10.8813 24.8963 11.1343 25.2085 11.1343C25.5206 11.1343 25.7737 10.8813 25.7737 10.5691C25.7737 10.257 25.5206 10.0039 25.2085 10.0039ZM13 10.7391C14.2687 10.7391 15.2609 11.7313 15.2609 13C15.2609 14.2687 14.2687 15.2609 13 15.2609C11.7313 15.2609 10.7391 14.2687 10.7391 13C10.7391 11.7313 11.7313 10.7391 13 10.7391ZM0.565217 12.4348C0.253056 12.4348 0 12.6878 0 13C0 13.3122 0.253056 13.5652 0.565217 13.5652C0.877378 13.5652 1.13043 13.3122 1.13043 13C1.13043 12.6878 0.877378 12.4348 0.565217 12.4348ZM25.4348 12.4348C25.1226 12.4348 24.8696 12.6878 24.8696 13C24.8696 13.3122 25.1226 13.5652 25.4348 13.5652C25.7469 13.5652 26 13.3122 26 13C26 12.6878 25.7469 12.4348 25.4348 12.4348ZM0.791525 14.8657C0.479364 14.8657 0.226308 15.1187 0.226308 15.4309C0.226308 15.743 0.479364 15.9961 0.791525 15.9961C1.10369 15.9961 1.35674 15.743 1.35674 15.4309C1.35674 15.1187 1.10369 14.8657 0.791525 14.8657ZM25.2085 14.8657C24.8963 14.8657 24.6433 15.1187 24.6433 15.4309C24.6433 15.743 24.8963 15.9961 25.2085 15.9961C25.5206 15.9961 25.7737 15.743 25.7737 15.4309C25.7737 15.1187 25.5206 14.8657 25.2085 14.8657ZM1.52565 17.1828C1.21348 17.1828 0.960428 17.4359 0.960428 17.748C0.960428 18.0602 1.21348 18.3133 1.52565 18.3133C1.83781 18.3133 2.09086 18.0602 2.09086 17.748C2.09086 17.4359 1.83781 17.1828 1.52565 17.1828ZM24.4744 17.1828C24.1622 17.1828 23.9091 17.4359 23.9091 17.748C23.9091 18.0602 24.1622 18.3133 24.4744 18.3133C24.7865 18.3133 25.0396 18.0602 25.0396 17.748C25.0396 17.4359 24.7865 17.1828 24.4744 17.1828ZM2.65608 19.33C2.34392 19.33 2.09086 19.583 2.09086 19.8952C2.09086 20.2074 2.34392 20.4604 2.65608 20.4604C2.96824 20.4604 3.2213 20.2074 3.2213 19.8952C3.2213 19.583 2.96824 19.33 2.65608 19.33ZM23.3439 19.33C23.0318 19.33 22.7787 19.583 22.7787 19.8952C22.7787 20.2074 23.0318 20.4604 23.3439 20.4604C23.6561 20.4604 23.9091 20.2074 23.9091 19.8952C23.9091 19.583 23.6561 19.33 23.3439 19.33ZM4.18283 21.252C3.87067 21.252 3.61761 21.505 3.61761 21.8172C3.61761 22.1293 3.87067 22.3824 4.18283 22.3824C4.33273 22.3824 4.4765 22.3228 4.5825 22.2168C4.6885 22.1108 4.74805 21.9671 4.74805 21.8172C4.74805 21.6673 4.6885 21.5235 4.5825 21.4175C4.4765 21.3115 4.33273 21.252 4.18283 21.252ZM21.8172 21.252C21.505 21.252 21.252 21.505 21.252 21.8172C21.252 22.1293 21.505 22.3824 21.8172 22.3824C22.1293 22.3824 22.3824 22.1293 22.3824 21.8172C22.3824 21.505 22.1293 21.252 21.8172 21.252ZM6.10479 22.7787C5.79263 22.7787 5.53957 23.0318 5.53957 23.3439C5.53957 23.6561 5.79263 23.9091 6.10479 23.9091C6.41695 23.9091 6.67001 23.6561 6.67001 23.3439C6.67001 23.0318 6.41695 22.7787 6.10479 22.7787ZM19.8952 22.7787C19.583 22.7787 19.33 23.0318 19.33 23.3439C19.33 23.6561 19.583 23.9091 19.8952 23.9091C20.2074 23.9091 20.4604 23.6561 20.4604 23.3439C20.4604 23.0318 20.2074 22.7787 19.8952 22.7787ZM8.25195 23.9091C7.93979 23.9091 7.68673 24.1622 7.68673 24.4744C7.68673 24.7865 7.93979 25.0396 8.25195 25.0396C8.56411 25.0396 8.81717 24.7865 8.81717 24.4744C8.81717 24.1622 8.56411 23.9091 8.25195 23.9091ZM17.748 23.9091C17.4359 23.9091 17.1828 24.1622 17.1828 24.4744C17.1828 24.7865 17.4359 25.0396 17.748 25.0396C18.0602 25.0396 18.3133 24.7865 18.3133 24.4744C18.3133 24.1622 18.0602 23.9091 17.748 23.9091ZM10.5691 24.6433C10.257 24.6433 10.0039 24.8963 10.0039 25.2085C10.0039 25.5206 10.257 25.7737 10.5691 25.7737C10.8813 25.7737 11.1343 25.5206 11.1343 25.2085C11.1343 24.8963 10.8813 24.6433 10.5691 24.6433ZM15.4309 24.6433C15.1187 24.6433 14.8657 24.8963 14.8657 25.2085C14.8657 25.5206 15.1187 25.7737 15.4309 25.7737C15.743 25.7737 15.9961 25.5206 15.9961 25.2085C15.9961 24.8963 15.743 24.6433 15.4309 24.6433ZM13 24.8696C12.6878 24.8696 12.4348 25.1226 12.4348 25.4348C12.4348 25.7469 12.6878 26 13 26C13.3122 26 13.5652 25.7469 13.5652 25.4348C13.5652 25.1226 13.3122 24.8696 13 24.8696Z" fill="white"/>
</svg>
