<svg width="26" height="26" viewBox="0 0 26 26" fill="none" xmlns="http://www.w3.org/2000/svg">
<path fill-rule="evenodd" clip-rule="evenodd" d="M12.8395 2.64323V23.3568C12.8929 23.3576 12.9464 23.3581 13 23.3581C18.7206 23.3581 23.358 18.7206 23.358 13C23.358 7.27945 18.7206 2.64201 13 2.64201C12.9464 2.64201 12.8929 2.64241 12.8395 2.64323ZM21.1852 13.321C21.1852 14.6506 20.1074 15.7284 18.7778 15.7284C17.4482 15.7284 16.3704 14.6506 16.3704 13.321C16.3704 11.9914 17.4482 10.9136 18.7778 10.9136C20.1074 10.9136 21.1852 11.9914 21.1852 13.321ZM26 13C26 20.1797 20.1797 26 13 26C5.8203 26 0 20.1797 0 13C0 5.8203 5.8203 0 13 0C20.1797 0 26 5.8203 26 13Z" fill="white"/>
</svg>
