<svg width="32" height="32" viewBox="0 0 32 32" fill="none" xmlns="http://www.w3.org/2000/svg">
<path d="M16.3333 3C8.96933 3 3 8.96933 3 16.3333C3 23.6973 8.96933 29.6667 16.3333 29.6667C23.6973 29.6667 29.6667 23.6973 29.6667 16.3333C29.6667 8.96933 23.6973 3 16.3333 3Z" stroke="white" stroke-width="1.5" stroke-linecap="round" stroke-linejoin="round"/>
<path d="M6.02783 24.7948C6.02783 24.7948 8.99983 21.0002 16.3332 21.0002C23.6665 21.0002 26.6398 24.7948 26.6398 24.7948M16.3332 16.3335C17.394 16.3335 18.4114 15.9121 19.1616 15.1619C19.9117 14.4118 20.3332 13.3944 20.3332 12.3335C20.3332 11.2726 19.9117 10.2552 19.1616 9.50507C18.4114 8.75492 17.394 8.3335 16.3332 8.3335C15.2723 8.3335 14.2549 8.75492 13.5047 9.50507C12.7546 10.2552 12.3332 11.2726 12.3332 12.3335C12.3332 13.3944 12.7546 14.4118 13.5047 15.1619C14.2549 15.9121 15.2723 16.3335 16.3332 16.3335Z" stroke="white" stroke-width="1.5" stroke-linecap="round" stroke-linejoin="round"/>
</svg>
