<svg width="38" height="39" viewBox="0 0 38 39" fill="none" xmlns="http://www.w3.org/2000/svg">
<g clip-path="url(#clip0_1_11266)">
<path d="M26.9167 17.875C26.9167 22.36 23.37 26 19 26C14.63 26 11.0833 22.36 11.0833 17.875H7.91666C7.91666 23.6112 12.0492 28.3238 17.4167 29.12V34.125H20.5833V29.12C25.9508 28.3238 30.0833 23.6112 30.0833 17.875H26.9167V17.875Z" fill="white"/>
<path d="M19 22.75C21.6283 22.75 23.75 20.5725 23.75 17.875V8.125C23.75 5.4275 21.6283 3.25 19 3.25C16.3717 3.25 14.25 5.4275 14.25 8.125V17.875C14.25 20.5725 16.3717 22.75 19 22.75ZM17.4167 8.125C17.4167 7.23125 18.1292 6.5 19 6.5C19.8708 6.5 20.5833 7.23125 20.5833 8.125V17.875C20.5833 18.7688 19.8708 19.5 19 19.5C18.1292 19.5 17.4167 18.7688 17.4167 17.875V8.125Z" fill="white"/>
<path d="M19 22.75C21.6283 22.75 23.75 20.5725 23.75 17.875V8.125C23.75 5.4275 21.6283 3.25 19 3.25C16.3717 3.25 14.25 5.4275 14.25 8.125V17.875C14.25 20.5725 16.3717 22.75 19 22.75Z" fill="white"/>
</g>
<defs>
<clipPath id="clip0_1_11266">
<rect width="38" height="39" fill="white"/>
</clipPath>
</defs>
</svg>
