<svg width="30" height="31" viewBox="0 0 30 31" fill="none" xmlns="http://www.w3.org/2000/svg">
<g clip-path="url(#clip0_1_11276)">
<path d="M21.25 14.2085C21.25 17.7735 18.45 20.6668 15 20.6668C11.55 20.6668 8.75 17.7735 8.75 14.2085H6.25C6.25 18.7681 9.5125 22.5139 13.75 23.1468V27.1252H16.25V23.1468C20.4875 22.5139 23.75 18.7681 23.75 14.2085H21.25V14.2085Z" fill="white"/>
<path d="M15 18.0835C17.075 18.0835 18.75 16.3527 18.75 14.2085V6.4585C18.75 4.31433 17.075 2.5835 15 2.5835C12.925 2.5835 11.25 4.31433 11.25 6.4585V14.2085C11.25 16.3527 12.925 18.0835 15 18.0835ZM13.75 6.4585C13.75 5.74808 14.3125 5.16683 15 5.16683C15.6875 5.16683 16.25 5.74808 16.25 6.4585V14.2085C16.25 14.9189 15.6875 15.5002 15 15.5002C14.3125 15.5002 13.75 14.9189 13.75 14.2085V6.4585Z" fill="white"/>
<path d="M15 18.0835C17.075 18.0835 18.75 16.3527 18.75 14.2085V6.4585C18.75 4.31433 17.075 2.5835 15 2.5835C12.925 2.5835 11.25 4.31433 11.25 6.4585V14.2085C11.25 16.3527 12.925 18.0835 15 18.0835Z" fill="white"/>
</g>
<defs>
<clipPath id="clip0_1_11276">
<rect width="30" height="31" fill="white"/>
</clipPath>
</defs>
</svg>
