<svg width="31" height="32" viewBox="0 0 31 32" fill="none" xmlns="http://www.w3.org/2000/svg">
<g clip-path="url(#clip0_1_11270)">
<path d="M21.9583 14.6665C21.9583 18.3465 19.065 21.3332 15.5 21.3332C11.935 21.3332 9.04166 18.3465 9.04166 14.6665H6.45833C6.45833 19.3732 9.82958 23.2398 14.2083 23.8932V27.9998H16.7917V23.8932C21.1704 23.2398 24.5417 19.3732 24.5417 14.6665H21.9583V14.6665Z" fill="white"/>
<path d="M15.5 18.6665C17.6442 18.6665 19.375 16.8798 19.375 14.6665V6.6665C19.375 4.45317 17.6442 2.6665 15.5 2.6665C13.3558 2.6665 11.625 4.45317 11.625 6.6665V14.6665C11.625 16.8798 13.3558 18.6665 15.5 18.6665ZM14.2083 6.6665C14.2083 5.93317 14.7896 5.33317 15.5 5.33317C16.2104 5.33317 16.7917 5.93317 16.7917 6.6665V14.6665C16.7917 15.3998 16.2104 15.9998 15.5 15.9998C14.7896 15.9998 14.2083 15.3998 14.2083 14.6665V6.6665Z" fill="white"/>
<path d="M15.5 18.6665C17.6442 18.6665 19.375 16.8798 19.375 14.6665V6.6665C19.375 4.45317 17.6442 2.6665 15.5 2.6665C13.3558 2.6665 11.625 4.45317 11.625 6.6665V14.6665C11.625 16.8798 13.3558 18.6665 15.5 18.6665Z" fill="white"/>
</g>
<defs>
<clipPath id="clip0_1_11270">
<rect width="31" height="32" fill="white"/>
</clipPath>
</defs>
</svg>
