<svg width="13" height="12" viewBox="0 0 13 12" fill="none" xmlns="http://www.w3.org/2000/svg">
<path d="M11.9167 6C11.9167 5.86739 11.9737 5.74021 12.0753 5.64645C12.1769 5.55268 12.3147 5.5 12.4583 5.5C12.602 5.5 12.7398 5.55268 12.8414 5.64645C12.9429 5.74021 13 5.86739 13 6V11.5C13 11.6326 12.9429 11.7598 12.8414 11.8536C12.7398 11.9473 12.602 12 12.4583 12H0.541667C0.398008 12 0.260233 11.9473 0.158651 11.8536C0.0570684 11.7598 0 11.6326 0 11.5V0.5C0 0.367392 0.0570684 0.240215 0.158651 0.146447C0.260233 0.0526785 0.398008 0 0.541667 0H6.5C6.64366 0 6.78143 0.0526785 6.88302 0.146447C6.9846 0.240215 7.04167 0.367392 7.04167 0.5C7.04167 0.632608 6.9846 0.759785 6.88302 0.853553C6.78143 0.947321 6.64366 1 6.5 1H1.08333V11H11.9167V6Z" fill="white"/>
</svg>
