<svg width="9" height="9" viewBox="0 0 9 9" fill="none" xmlns="http://www.w3.org/2000/svg">
<path d="M1.20581 7.79301L2.11923 7.66236L7.73042 2.05193C7.78329 2.00086 7.82547 1.93977 7.85448 1.87223C7.88349 1.80468 7.89876 1.73204 7.8994 1.65853C7.90004 1.58502 7.88603 1.51211 7.8582 1.44408C7.83036 1.37604 7.78926 1.31422 7.73728 1.26224C7.6853 1.21026 7.62349 1.16915 7.55546 1.14132C7.48742 1.11348 7.41453 1.09947 7.34102 1.10011C7.26752 1.10075 7.19487 1.11602 7.12733 1.14504C7.05979 1.17405 6.99871 1.21623 6.94764 1.26911L1.33535 6.87953L1.2047 7.79301H1.20581ZM8.51319 0.485174C8.66752 0.639414 8.78995 0.822554 8.87348 1.02413C8.95701 1.22571 9 1.44177 9 1.65996C9 1.87816 8.95701 2.09422 8.87348 2.2958C8.78995 2.49737 8.66752 2.68051 8.51319 2.83475L2.77247 8.57584C2.68781 8.66081 2.57785 8.71599 2.45913 8.73307L0.632286 8.99438C0.547148 9.0066 0.460333 8.99882 0.378725 8.97165C0.297117 8.94448 0.222962 8.89867 0.162143 8.83785C0.101324 8.77702 0.0555127 8.70286 0.0283438 8.62125C0.00117482 8.53964 -0.00660492 8.45282 0.00562211 8.36767L0.266917 6.54071C0.283692 6.42213 0.338469 6.31218 0.423029 6.22736L6.16486 0.486281C6.47631 0.174916 6.89865 0 7.33903 0C7.77941 0 8.20175 0.174916 8.51319 0.486281V0.485174Z" fill="white"/>
</svg>
